<svg width="162" height="53" viewBox="0 0 162 53" fill="none" xmlns="http://www.w3.org/2000/svg">
<path d="M41.349 39.0911L40.1087 38.3862L39.7083 39.0278L41.349 39.9616V39.0911Z" fill="white"/>
<path d="M41.349 41.5778L38.9666 40.2231L38.5661 40.8668L41.349 42.4482V41.5778Z" fill="white"/>
<path d="M41.349 43.8725L37.9123 41.9192L37.5139 42.5608L41.349 44.7429V43.8725Z" fill="white"/>
<path d="M41.3491 46.3181L36.7886 43.7273L36.3901 44.3689L41.3491 47.1885V46.3181Z" fill="white"/>
<path d="M41.349 48.7883L35.6545 45.5498L35.256 46.1934L41.349 49.6567V48.7883Z" fill="white"/>
<path d="M36.1693 31.3678L35.3152 31.2043L27.175 40.8219L27.931 41.0997L36.1693 31.3678Z" fill="white"/>
<path d="M15.0935 15.2426L14.6542 14.2761L1.28528 9.34375L1.43444 10.206L15.0935 15.2426Z" fill="white"/>
<path d="M22.2999 24.7803H22.3653L21.5194 24.0202L6.71204 23.9548L7.18811 24.7149L22.2999 24.7803Z" fill="white"/>
<path d="M15.5224 34.0974L29.204 29.1834L28.2498 28.7236L14.8543 33.5334L15.5224 34.0974Z" fill="white"/>
<path d="M18.5199 20.7613L17.8457 19.8704L3.41632 17.2612L3.74324 18.0887L18.5199 20.7613Z" fill="white"/>
<path d="M25.0767 26.8562L10.6473 29.3367L11.2378 30.0028L26.0104 27.463L25.0767 26.8562Z" fill="white"/>
<path d="M31.8581 30.2503L30.9264 29.9111L19.0471 36.7008L19.7642 37.1626L31.8581 30.2503Z" fill="white"/>
<path d="M33.1678 30.6689L23.0967 39.0462L23.8405 39.4119L34.0567 30.9141L33.1678 30.6689Z" fill="white"/>
<path d="M46.4938 31.3655L47.3479 31.2041L55.4882 40.8216L54.7322 41.0995L46.4938 31.3655Z" fill="white"/>
<path d="M67.5718 15.2423L68.0111 14.2759L81.38 9.34351L81.2288 10.2058L67.5718 15.2423Z" fill="white"/>
<path d="M60.3654 24.7801H60.3L61.1459 24.02L75.9532 23.9546L75.4771 24.7147L60.3654 24.7801Z" fill="white"/>
<path d="M67.1407 34.0974L53.4592 29.1834L54.4134 28.7236L67.8089 33.5334L67.1407 34.0974Z" fill="white"/>
<path d="M64.1433 20.7611L64.8196 19.8702L79.249 17.261L78.922 18.0885L64.1433 20.7611Z" fill="white"/>
<path d="M57.5886 26.856L72.0159 29.3364L71.4274 30.0025L56.6548 27.4628L57.5886 26.856Z" fill="white"/>
<path d="M50.8071 30.2501L51.7367 29.9109L63.6161 36.7006L62.901 37.1623L50.8071 30.2501Z" fill="white"/>
<path d="M49.4954 30.6689L59.5665 39.0462L58.8227 39.4119L48.6066 30.9141L49.4954 30.6689Z" fill="white"/>
<path d="M39.1422 13.7693H35.2417L34.8004 14.5253H38.6988L39.1422 13.7693Z" fill="white"/>
<path d="M38.1696 15.4326H35.2417L34.8004 16.1907H37.7283L38.1696 15.4326Z" fill="white"/>
<path d="M82.6652 0L82.6407 0.0143041L57.5825 14.6439C57.5518 14.6847 57.2944 15.028 57.2269 15.1138C54.6177 18.4668 51.0155 20.8839 47.0067 22.0669C46.6552 21.4642 46.3038 20.8614 45.9524 20.2607C45.8379 20.0646 45.7194 19.8684 45.6009 19.6723C45.3578 19.2718 45.1085 18.857 44.894 18.4422C44.6897 18.0438 44.6181 17.7067 44.6774 17.4104C44.7448 17.0733 44.9471 16.7688 45.2332 16.5727C45.4518 16.4235 45.7194 16.3418 45.9851 16.3418C46.5265 16.3418 47.0108 16.6646 47.2171 17.1673L47.5359 17.9376L47.9057 17.1918C48.1488 16.7035 48.2714 16.1763 48.2714 15.6287C48.2714 13.6876 46.692 12.1062 44.7509 12.1062H35.2417L34.8004 12.8622H40.9321L35.583 22.0363C31.617 20.8431 28.0536 18.4402 25.4669 15.1159C25.3995 15.028 25.142 14.6868 25.1114 14.6459L0.0245194 0.0163494C0.0163464 0.138944 0 2.78289 0 2.78289C0 4.87312 0.161416 6.97561 0.476074 9.04745L0.617058 9.90561C1.04409 12.3595 1.69589 14.7787 2.55609 17.108L2.54587 17.106L2.86666 17.9335H2.8687C3.686 20.0094 4.68105 22.0302 5.8314 23.9549L6.29112 24.7129H6.29317C7.3393 26.3823 8.51008 27.9842 9.78301 29.488L10.3592 30.1561H10.3612C11.1969 31.1001 12.0817 32.0114 13.0032 32.8818C13.0685 32.9431 14.035 33.8319 14.035 33.8319L14.699 34.3958C14.7685 34.453 15.8473 35.3255 15.8902 35.3582C20.2955 38.8011 25.4097 41.3735 30.9755 42.814C31.1307 42.8548 31.6477 42.9795 31.7519 43.004L38.6029 31.9807L40.9015 35.679L33.4376 47.6912L41.3428 52.2129L49.2542 47.6912L41.7903 35.6769L44.0746 32.0052L50.9113 43.004C51.0155 42.9795 51.5324 42.8528 51.6877 42.814C57.2535 41.3735 62.3698 38.8011 66.7729 35.3582C66.8158 35.3255 67.8947 34.453 67.9641 34.3958L68.6282 33.8319L68.6221 33.8299C68.6854 33.7727 69.5947 32.9431 69.66 32.8818C70.5815 32.0134 71.4663 31.1021 72.3019 30.1561H72.304L72.8883 29.488H72.8843H72.8802C74.1531 27.9842 75.3239 26.3823 76.37 24.7129H76.3721L76.842 23.9549H76.8318C77.9801 22.0302 78.9752 20.0094 79.7945 17.9335H79.7965L80.1173 17.106L80.1071 17.108C80.9673 14.7767 81.6191 12.3595 82.0461 9.90561L82.1871 9.04745C82.5018 6.97561 82.6632 4.87107 82.6632 2.78289L82.6652 0ZM63.8143 13.6631C63.9288 13.4281 64.1678 12.901 64.1801 12.8744C64.2843 12.6374 64.505 12.1041 64.5172 12.0735C64.6132 11.8365 64.7052 11.5974 64.793 11.3563C64.7992 11.3379 64.8074 11.3195 64.8135 11.3011L64.8809 11.2623L68.9245 8.90443C66.4767 19.9849 57.5089 28.6421 46.267 30.6342C46.0504 30.6731 45.8318 30.7078 45.6152 30.7425C45.5539 30.7527 45.4906 30.7609 45.4293 30.7691C45.2475 30.7957 45.0656 30.8222 44.8817 30.8447C44.849 30.8488 44.8163 30.8529 44.7836 30.8549L47.1477 27.0504L47.0741 27.0667C47.1334 27.0524 47.1947 27.0402 47.2539 27.0259C47.3929 26.9911 47.5318 26.9564 47.6707 26.9196C51.3343 25.9614 54.6729 24.1919 57.4844 21.8177C57.6131 21.7094 57.7418 21.599 57.8665 21.4867C57.9012 21.456 57.936 21.4254 57.9707 21.3947C59.3131 20.1953 60.5247 18.8529 61.579 17.3941C61.7466 17.1632 62.0735 16.683 62.0776 16.6789C62.2329 16.448 62.5434 15.9577 62.5516 15.9475C62.6946 15.7166 62.9889 15.216 62.9991 15.2017C63.1339 14.9687 63.8021 13.6876 63.8143 13.6631ZM41.8066 12.8601H44.7509C46.2752 12.8601 47.5154 14.1004 47.5154 15.6246C47.5154 15.8167 47.4971 16.0047 47.4582 16.1886C47.0741 15.8065 46.551 15.5817 45.9851 15.5817C45.5682 15.5817 45.1494 15.7104 44.8061 15.9454C44.3587 16.2519 44.0419 16.73 43.9357 17.2572C43.8417 17.7292 43.9337 18.2298 44.2217 18.7855C44.4485 19.2228 44.706 19.6498 44.9532 20.0605C45.0697 20.2526 45.1862 20.4446 45.2985 20.6387C45.6152 21.1822 45.934 21.7257 46.2507 22.2692C44.659 22.6717 43.0122 22.8842 41.3449 22.8842C39.6388 22.8842 37.9552 22.6636 36.3328 22.2427L41.8066 12.8601ZM13.7162 8.87378L17.7557 11.2296C18.0499 12.0367 18.3871 12.8254 18.761 13.5916C21.8974 20.036 27.7124 24.9459 34.7514 26.8604C34.9822 26.9237 35.5523 27.0647 35.5523 27.0647L37.9102 30.861C37.8796 30.857 37.8469 30.8549 37.8162 30.8508C37.7426 30.8426 37.6711 30.8304 37.5976 30.8202C37.1522 30.7609 36.7088 30.6915 36.2695 30.6118C36.106 30.5893 35.9548 30.5648 35.8343 30.5402C35.2417 30.4238 34.6471 30.2848 34.0628 30.1296C33.3558 29.9416 32.6468 29.723 31.9542 29.4798L31.946 29.4778C31.0797 29.1733 30.2174 28.8198 29.3838 28.4316C28.3233 27.9351 27.2813 27.3671 26.2924 26.7439C25.0501 25.9614 23.8609 25.0766 22.7576 24.1163C21.3947 22.9292 20.1422 21.6052 19.0287 20.181C19.0287 20.181 18.8632 19.9685 18.8325 19.9256C17.625 18.3421 16.5829 16.6279 15.735 14.8257C15.735 14.8257 15.2997 13.8491 15.265 13.7653C15.1915 13.5896 14.9708 13.0379 14.932 12.9378C14.8707 12.7764 14.8073 12.6129 14.7481 12.4515C14.7093 12.3452 14.4007 11.436 14.366 11.3257C14.3149 11.1642 14.1535 10.6248 14.1228 10.5186C14.0738 10.3469 13.9308 9.80549 13.9042 9.70742C13.8511 9.49901 13.7244 8.95551 13.7101 8.89217C13.7081 8.88399 13.706 8.87582 13.704 8.8656L13.7162 8.87378ZM37.6405 32.0972L31.4004 42.1397C25.4914 40.6481 20.0952 37.8612 15.5286 34.0975C15.2773 33.8912 15.028 33.6828 14.7808 33.4703C14.5008 33.2292 13.8511 32.6386 13.8 32.5917C13.5467 32.3587 12.9725 31.8071 12.9337 31.7682C12.6599 31.4985 12.0163 30.8365 11.9611 30.7813C11.7404 30.5484 11.1806 29.9416 11.152 29.9089C11.152 29.9089 10.6453 29.3368 10.6432 29.3347C10.6453 29.3368 10.6453 29.3368 10.6473 29.3388C9.39071 27.8861 8.22811 26.3353 7.1881 24.717L6.71203 23.959C5.56577 22.0874 4.56868 20.1177 3.74321 18.0929L3.41629 17.2653C2.54587 14.9871 1.87978 12.617 1.4364 10.208L1.28724 9.34577C0.935803 7.17789 0.755998 4.9712 0.755998 2.78085V1.31584L12.8274 8.35479C12.8499 8.46513 12.9439 8.92077 12.9705 9.03723C13.0011 9.17822 13.2238 10.0875 13.2606 10.2284C13.2912 10.3408 13.6652 11.6178 13.7142 11.767C13.7469 11.8671 13.9226 12.3861 13.9778 12.5434C14.0105 12.6333 14.5519 14.035 14.6561 14.2761L15.0954 15.2446C15.8657 16.8669 16.7913 18.4198 17.8477 19.8725L18.5219 20.7634C18.573 20.8267 19.5272 21.9668 19.5292 21.9709C20.1586 22.686 20.8226 23.3726 21.5194 24.0223L22.3653 24.7824C22.4817 24.8825 23.6014 25.7897 23.6443 25.8245C24.1102 26.1841 24.5883 26.5294 25.0766 26.8583L26.0104 27.4652C26.0921 27.5163 28.0536 28.6257 28.2498 28.7259L29.204 29.1876C29.7679 29.4471 30.3441 29.6903 30.9264 29.915L31.8561 30.2542C32.2893 30.4034 32.7265 30.5443 33.1658 30.6731L34.0546 30.9183C34.3877 31.0041 34.7227 31.0838 35.0599 31.1594L35.9078 31.3289C35.9793 31.3412 36.7762 31.474 37.1011 31.521C37.3749 31.5619 37.6487 31.5966 37.9245 31.6293C37.9265 31.6293 37.9286 31.6293 37.9306 31.6293L37.6405 32.0972ZM48.1632 47.3602L41.3469 51.2525L34.5327 47.3581L41.3469 36.3921L48.1632 47.3602ZM41.3469 34.9598L36.0263 26.3986C35.6769 26.321 35.3296 26.2351 34.9863 26.1412C27.6327 24.1551 21.6501 18.7978 18.8019 11.8365L19.4353 12.2083L24.5965 15.218C26.4906 17.7639 28.9751 19.8766 31.7887 21.3293C34.7616 22.8638 37.9776 23.6423 41.3469 23.6423C44.7162 23.6423 47.9323 22.8638 50.9052 21.3293C53.7187 19.8766 56.2033 17.7639 58.0974 15.218L63.7633 11.9141C63.704 12.0612 63.6427 12.2083 63.5794 12.3534C63.5528 12.4147 62.7232 14.1331 62.6803 14.2148C62.5986 14.368 61.9141 15.5409 61.861 15.6246C61.7629 15.7799 61.1234 16.7361 60.9681 16.9507C59.9853 18.3074 58.8636 19.5599 57.6254 20.6857C57.5375 20.7654 56.6324 21.5418 56.5241 21.6297C56.5179 21.6338 56.5118 21.6399 56.5057 21.644C55.3513 22.5737 54.111 23.3991 52.8115 24.0979C51.7838 24.6516 50.7111 25.1338 49.62 25.5302C49.0949 25.7203 48.439 25.9266 47.826 26.1003L47.8321 26.0921C47.4501 26.1984 47.0618 26.2964 46.6716 26.3843L43.8315 30.953L41.3469 34.9598ZM81.38 9.34372L81.2309 10.206C80.7855 12.6129 80.1214 14.9831 79.251 17.2633L78.9241 18.0908C78.0986 20.1157 77.1015 22.0853 75.9552 23.9569L75.4792 24.715C74.4371 26.3332 73.2766 27.884 72.02 29.3368C72.022 29.3347 72.022 29.3347 72.02 29.3368C72.02 29.3368 70.5999 30.8917 70.5468 30.9468C70.2791 31.2227 69.658 31.8418 69.6192 31.8786C69.3719 32.1176 68.1664 33.2251 67.8885 33.4682C67.6434 33.6807 67.392 33.8891 67.1407 34.0955C62.5741 37.8591 57.1779 40.6461 51.2689 42.1377L44.7366 31.6252C44.7387 31.6252 45.2945 31.5557 45.5662 31.5169C45.8911 31.4699 46.2139 31.4168 46.5367 31.3575C46.6144 31.3473 47.6074 31.1532 47.6074 31.1532C47.9445 31.0797 48.2796 30.9979 48.6127 30.9121L49.5015 30.6669C49.9408 30.5382 50.3801 30.3993 50.8112 30.2481L51.7409 29.9089C52.3232 29.6862 52.8994 29.441 53.4633 29.1815L54.4175 28.7197C54.6136 28.6196 55.1408 28.3397 55.2082 28.3029C55.3329 28.2355 56.5752 27.5101 56.6569 27.4611L57.5906 26.8543C58.079 26.5233 58.555 26.1779 59.0229 25.8204C59.0659 25.7877 59.8648 25.1461 59.9485 25.0746C60.067 24.9765 60.1856 24.8784 60.302 24.7783L61.1479 24.0182C61.8447 23.3685 62.5087 22.682 63.138 21.9668C63.1421 21.9627 64.0963 20.8226 64.1453 20.7593L64.8196 19.8684C65.876 18.4157 66.8015 16.8628 67.5718 15.2405L68.0111 14.272C68.1153 14.0309 68.5281 12.9909 68.5955 12.809C68.6282 12.7191 68.8039 12.2247 68.857 12.0674C68.8918 11.9672 69.278 10.7086 69.3188 10.5635C69.3495 10.4512 69.4843 9.94443 69.5191 9.80345C69.5477 9.68903 69.8194 8.46513 69.8398 8.35275L81.9113 1.31381V2.7788C81.9113 4.96915 81.7315 7.17585 81.38 9.34372Z" fill="white"/>
<path d="M72.0159 29.3367C72.0178 29.3347 72.0178 29.3347 72.0159 29.3367V29.3367Z" fill="white"/>
<path d="M39.1422 13.7693H35.2417L34.8004 14.5253H38.6988L39.1422 13.7693Z" fill="white"/>
<path d="M38.1696 15.4326H35.2417L34.8004 16.1907H37.7283L38.1696 15.4326Z" fill="white"/>
<path d="M10.6486 29.3378L10.6459 29.3352L10.6432 29.3325C10.6459 29.3325 10.6459 29.3351 10.6486 29.3378Z" fill="white"/>
<path d="M95.2781 32.9926C95.0288 32.6656 94.6896 32.4307 94.2626 32.2917C94.5711 32.1303 94.8143 31.9015 94.992 31.6072C95.1677 31.313 95.2576 30.9738 95.2576 30.5918C95.2576 29.9665 95.0104 29.4761 94.518 29.1186C94.0256 28.761 93.3227 28.5833 92.4094 28.5833H88.7888V29.7091H90.2231H90.7421H92.2541C92.7547 29.7091 93.1388 29.799 93.4085 29.9788C93.6782 30.1586 93.811 30.4262 93.811 30.7797C93.811 31.125 93.6762 31.3886 93.4085 31.5684C93.1408 31.7482 92.7547 31.8381 92.2541 31.8381H90.7421H90.2231V31.0494H88.7888V31.8381V32.9517V33.8405H90.2231V32.9517H90.7441H92.5422C93.6537 32.9517 94.2095 33.3236 94.2095 34.0673C94.2095 34.811 93.6537 35.1829 92.5422 35.1829H90.7441H90.2252H88.7908V36.3087H92.6321C93.619 36.3087 94.3688 36.1269 94.8837 35.7632C95.3986 35.3995 95.6561 34.8826 95.6561 34.2124C95.654 33.7261 95.5294 33.3195 95.2781 32.9926Z" fill="white"/>
<path d="M100.125 28.5833L96.647 36.3108H98.1263L98.8885 34.5209L99.3727 33.3951L100.819 30.0176L102.276 33.3951L102.752 34.5209L103.525 36.3108H105.026L101.536 28.5833H100.125Z" fill="white"/>
<path d="M112.605 32.8333C112.889 32.4144 113.03 31.9138 113.03 31.3315C113.03 30.7655 112.897 30.2751 112.631 29.8624C112.366 29.4497 111.986 29.133 111.489 28.9123C110.993 28.6916 110.408 28.5813 109.74 28.5813H106.561V36.3088H107.995V34.0572H109.74C109.873 34.0572 109.971 34.0531 110.038 34.047L111.618 36.3109H113.163L111.385 33.7711C111.914 33.5648 112.321 33.2521 112.605 32.8333ZM111.097 32.4737C110.774 32.7434 110.298 32.8762 109.673 32.8762H107.995V29.797H109.673C110.298 29.797 110.772 29.9298 111.097 30.1955C111.42 30.4611 111.583 30.8391 111.583 31.3315C111.583 31.8239 111.422 32.206 111.097 32.4737Z" fill="white"/>
<path d="M121.225 32.8333C121.509 32.4144 121.65 31.9138 121.65 31.3315C121.65 30.7655 121.517 30.2751 121.252 29.8624C120.986 29.4497 120.606 29.133 120.109 28.9123C119.613 28.6916 119.029 28.5813 118.36 28.5813H115.181V36.3088H116.616V34.0572H118.36C118.493 34.0572 118.591 34.0531 118.659 34.047L120.238 36.3109H121.783L120.005 33.7711C120.537 33.5648 120.943 33.2521 121.225 32.8333ZM119.719 32.4737C119.396 32.7434 118.92 32.8762 118.295 32.8762H116.618V29.797H118.295C118.92 29.797 119.394 29.9298 119.719 30.1955C120.042 30.4611 120.206 30.8391 120.206 31.3315C120.206 31.8239 120.042 32.206 119.719 32.4737Z" fill="white"/>
<path d="M129.543 28.9858C128.91 28.6425 128.201 28.4729 127.412 28.4729C126.625 28.4729 125.914 28.6445 125.281 28.9858C124.648 29.327 124.151 29.803 123.791 30.4099C123.43 31.0167 123.25 31.6951 123.25 32.447C123.25 33.1989 123.43 33.8773 123.791 34.4841C124.151 35.0909 124.65 35.565 125.281 35.9082C125.912 36.2515 126.623 36.4211 127.412 36.4211C128.199 36.4211 128.91 36.2495 129.543 35.9082C130.177 35.567 130.673 35.093 131.033 34.4902C131.392 33.8875 131.574 33.205 131.574 32.447C131.574 31.689 131.394 31.0086 131.033 30.4038C130.673 29.801 130.177 29.327 129.543 28.9858ZM129.776 33.8425C129.541 34.2593 129.216 34.5822 128.806 34.8131C128.393 35.044 127.929 35.1604 127.414 35.1604C126.899 35.1604 126.435 35.044 126.023 34.8131C125.61 34.5822 125.287 34.2573 125.052 33.8425C124.817 33.4278 124.699 32.9619 124.699 32.447C124.699 31.9321 124.817 31.4662 125.052 31.0515C125.287 30.6367 125.612 30.3118 126.023 30.0809C126.435 29.85 126.899 29.7336 127.414 29.7336C127.929 29.7336 128.393 29.85 128.806 30.0809C129.218 30.3118 129.541 30.6367 129.776 31.0515C130.011 31.4683 130.13 31.9321 130.13 32.447C130.13 32.9619 130.011 33.4278 129.776 33.8425Z" fill="white"/>
<path d="M137.835 32.275C137.467 32.132 136.995 31.9931 136.421 31.8603C136.002 31.7581 135.671 31.6662 135.428 31.5844C135.185 31.5027 134.984 31.3924 134.827 31.2534C134.668 31.1145 134.59 30.9327 134.59 30.712C134.59 30.3953 134.727 30.1419 135.005 29.9498C135.283 29.7578 135.701 29.6618 136.27 29.6618C136.615 29.6618 136.972 29.7128 137.34 29.817C137.708 29.9192 138.061 30.0704 138.401 30.2686L138.854 29.153C138.523 28.9323 138.129 28.7627 137.673 28.6442C137.218 28.5257 136.754 28.4685 136.282 28.4685C135.605 28.4685 135.033 28.5707 134.565 28.777C134.098 28.9834 133.748 29.2613 133.517 29.6107C133.286 29.9601 133.17 30.3483 133.17 30.7753C133.17 31.2841 133.301 31.6866 133.562 31.9849C133.824 32.2832 134.136 32.5019 134.5 32.6408C134.864 32.7797 135.34 32.9207 135.93 33.0597C136.349 33.1618 136.68 33.2558 136.923 33.3355C137.166 33.4172 137.367 33.5296 137.524 33.6726C137.681 33.8157 137.761 33.9975 137.761 34.2182C137.761 34.5206 137.62 34.7637 137.336 34.9476C137.052 35.1315 136.623 35.2234 136.051 35.2234C135.587 35.2234 135.125 35.1438 134.666 34.9864C134.206 34.8291 133.818 34.6248 133.501 34.3735L133.004 35.4891C133.327 35.769 133.769 35.9937 134.324 36.1633C134.88 36.3329 135.456 36.4167 136.053 36.4167C136.729 36.4167 137.303 36.3145 137.775 36.1082C138.245 35.9018 138.599 35.626 138.83 35.2807C139.061 34.9353 139.177 34.5492 139.177 34.1221C139.177 33.6216 139.046 33.2252 138.785 32.9289C138.517 32.6367 138.202 32.4181 137.835 32.275Z" fill="white"/>
<path d="M88.7867 19.9785V24.1447H90.2211V21.1922H93.9459V19.9785H90.687H90.2211H88.7867Z" fill="white"/>
<path d="M88.7866 18.7998H90.221V17.6311H94.4198V16.4297H88.7866V18.7998Z" fill="white"/>
<path d="M97.7933 20.8163H101.52V19.6373H97.7933V17.6309H101.994V16.4294H96.361V24.1447H102.147V22.9433H97.7933V20.8163Z" fill="white"/>
<path d="M110.333 20.6733C110.615 20.2545 110.758 19.7539 110.758 19.1736C110.758 18.6076 110.625 18.1193 110.361 17.7066C110.098 17.2959 109.716 16.9792 109.221 16.7585C108.725 16.5378 108.142 16.4275 107.474 16.4275H104.299V24.1448H105.731V21.8952H107.472C107.605 21.8952 107.703 21.8911 107.77 21.885L109.348 24.1448H110.89L109.115 21.6091C109.644 21.4048 110.051 21.0922 110.333 20.6733ZM108.829 20.3158C108.506 20.5834 108.032 20.7183 107.407 20.7183H105.731V17.6412H107.407C108.032 17.6412 108.506 17.774 108.829 18.0376C109.152 18.3011 109.313 18.6812 109.313 19.1736C109.313 19.666 109.152 20.0461 108.829 20.3158Z" fill="white"/>
<path d="M118.342 21.654L114.086 16.4294H112.907V24.1447H114.329V18.9201L118.585 24.1447H119.764V16.4294H118.342V21.654Z" fill="white"/>
<path d="M124.768 16.4294L121.297 24.1447H122.774L123.534 22.3589L124.018 21.2351L125.463 17.8618L126.918 21.2351L127.392 22.3589L128.164 24.1447H129.664L126.18 16.4294H124.768Z" fill="white"/>
<path d="M136.631 21.654L132.375 16.4294H131.196V24.1447H132.618V18.9201L136.872 24.1447H138.053V16.4294H136.631V21.654Z" fill="white"/>
<path d="M146.243 16.9077C145.603 16.5889 144.872 16.4275 144.048 16.4275H140.675V24.1448H144.048C144.872 24.1448 145.603 23.9854 146.243 23.6646C146.882 23.3459 147.379 22.8923 147.73 22.3079C148.082 21.7236 148.259 21.0493 148.259 20.2851C148.259 19.521 148.084 18.8467 147.73 18.2623C147.377 17.678 146.882 17.2284 146.243 16.9077ZM146.469 21.6827C146.239 22.0832 145.908 22.3917 145.476 22.6083C145.047 22.8249 144.549 22.9332 143.983 22.9332H142.109V17.6412H143.983C144.549 17.6412 145.047 17.7495 145.476 17.9661C145.905 18.1826 146.236 18.4912 146.469 18.8916C146.7 19.2921 146.817 19.758 146.817 20.2872C146.817 20.8164 146.7 21.2822 146.469 21.6827Z" fill="white"/>
<path d="M154.015 16.4294H152.603L149.132 24.1447H150.609L151.369 22.3589L151.855 21.2351L153.298 17.8618L154.753 21.2351L155.227 22.3589L155.999 24.1447H157.499L154.015 16.4294Z" fill="white"/>
<path d="M140.172 42.6486H140.716L141.316 41.7864H140.748L140.172 42.6486Z" fill="white"/>
<path d="M91.9844 45.1987H89.3303V43.2515H88.7867V47.7037H89.3303V45.687H91.9844V47.7037H92.5218V43.2515H91.9844V45.1987Z" fill="white"/>
<path d="M95.5928 43.2515H95.0493V47.7037H95.5928V43.2515Z" fill="white"/>
<path d="M101.136 43.6601C100.813 43.3884 100.364 43.2515 99.7978 43.2515H98.1203V47.7037H98.6638V46.3245H99.7978C100.364 46.3245 100.813 46.1876 101.136 45.9179C101.461 45.6461 101.624 45.2681 101.624 44.79C101.626 44.3139 101.461 43.9339 101.136 43.6601ZM100.754 45.5603C100.533 45.7422 100.208 45.8341 99.7876 45.8341H98.6679V43.7296H99.7876C100.208 43.7296 100.533 43.8215 100.754 44.0034C100.973 44.1832 101.083 44.4468 101.083 44.7859C101.081 45.121 100.971 45.3805 100.754 45.5603Z" fill="white"/>
<path d="M106.927 46.7209L104.182 43.2658L104.17 43.2515H103.729V47.7037H104.272V44.2322L107.01 47.6873L107.023 47.7037H107.464V43.2515H106.927V46.7209Z" fill="white"/>
<path d="M113.136 43.5046C112.785 43.3105 112.382 43.2124 111.945 43.2124C111.508 43.2124 111.105 43.3125 110.747 43.5087C110.39 43.7048 110.108 43.9766 109.908 44.3198C109.707 44.6611 109.605 45.0513 109.605 45.4763C109.605 45.9013 109.707 46.2916 109.908 46.6328C110.108 46.974 110.392 47.2478 110.747 47.4439C111.103 47.6401 111.505 47.7402 111.945 47.7402C112.384 47.7402 112.783 47.6421 113.136 47.448C113.487 47.2539 113.769 46.9801 113.972 46.6369C114.174 46.2936 114.278 45.9033 114.278 45.4763C114.278 45.0493 114.176 44.661 113.972 44.3157C113.769 43.9725 113.487 43.6987 113.136 43.5046ZM113.502 46.3835C113.348 46.6532 113.132 46.8657 112.862 47.0169C112.59 47.1681 112.282 47.2457 111.945 47.2457C111.608 47.2457 111.299 47.1681 111.025 47.0169C110.752 46.8657 110.535 46.6512 110.38 46.3835C110.224 46.1138 110.145 45.8094 110.145 45.4763C110.145 45.1433 110.224 44.8388 110.38 44.5691C110.535 44.2994 110.754 44.0869 111.025 43.9357C111.299 43.7845 111.608 43.7069 111.945 43.7069C112.282 43.7069 112.59 43.7845 112.862 43.9357C113.134 44.0869 113.348 44.3015 113.502 44.5691C113.655 44.8388 113.733 45.1433 113.733 45.4763C113.733 45.8094 113.655 46.1138 113.502 46.3835Z" fill="white"/>
<path d="M118.6 45.4845C118.401 45.4068 118.138 45.3271 117.817 45.2495C117.551 45.1841 117.335 45.1228 117.175 45.0656C117.022 45.0125 116.891 44.9328 116.791 44.8306C116.691 44.7326 116.644 44.6038 116.644 44.4383C116.644 44.2177 116.734 44.0399 116.918 43.8989C117.104 43.7579 117.386 43.6864 117.758 43.6864C117.952 43.6864 118.154 43.7171 118.358 43.7763C118.561 43.8356 118.755 43.9255 118.935 44.042L118.976 44.0685L119.164 43.6251L119.137 43.6067C118.959 43.4842 118.747 43.3861 118.504 43.3166C118.262 43.2471 118.011 43.2124 117.758 43.2124C117.396 43.2124 117.088 43.2676 116.842 43.3779C116.595 43.4882 116.409 43.6394 116.289 43.8274C116.168 44.0134 116.107 44.2238 116.107 44.4526C116.107 44.7326 116.18 44.9573 116.325 45.1228C116.468 45.2842 116.642 45.4068 116.844 45.4865C117.041 45.5642 117.308 45.6459 117.637 45.7276C117.909 45.793 118.126 45.8543 118.277 45.9095C118.424 45.9626 118.551 46.0423 118.653 46.1404C118.751 46.2384 118.8 46.3651 118.8 46.5306C118.8 46.7472 118.71 46.9188 118.524 47.0557C118.336 47.1926 118.048 47.2621 117.668 47.2621C117.396 47.2621 117.126 47.2131 116.871 47.117C116.616 47.021 116.409 46.8964 116.254 46.7431L116.213 46.7043L115.994 47.1354L116.015 47.1558C116.18 47.3316 116.419 47.4725 116.722 47.5788C117.022 47.683 117.341 47.7382 117.668 47.7382C118.03 47.7382 118.34 47.683 118.589 47.5747C118.841 47.4664 119.031 47.3152 119.153 47.1293C119.276 46.9433 119.337 46.7329 119.337 46.5041C119.337 46.2282 119.264 46.0055 119.121 45.8441C118.978 45.6868 118.802 45.5642 118.6 45.4845Z" fill="white"/>
<path d="M121.989 45.6809H124.249V45.2048H121.989V43.7316H124.523V43.2515H121.444V47.7037H124.617V47.2215H121.989V45.6809Z" fill="white"/>
<path d="M130.665 43.9402C130.941 43.7869 131.251 43.7073 131.588 43.7073C132.095 43.7073 132.52 43.8768 132.851 44.214L132.88 44.2426L133.229 43.8932L133.203 43.8646C133.006 43.6521 132.767 43.4907 132.487 43.3803C132.21 43.27 131.901 43.2148 131.574 43.2148C131.137 43.2148 130.734 43.3129 130.381 43.507C130.025 43.7011 129.745 43.9749 129.543 44.3182C129.343 44.6614 129.241 45.0517 129.241 45.4787C129.241 45.9058 129.343 46.294 129.543 46.6393C129.743 46.9846 130.023 47.2564 130.377 47.4505C130.728 47.6446 131.129 47.7426 131.568 47.7426C131.897 47.7426 132.205 47.6854 132.485 47.5731C132.767 47.4607 133.008 47.2972 133.203 47.0847L133.229 47.0561L132.878 46.7067L132.849 46.7374C132.522 47.0766 132.097 47.2482 131.586 47.2482C131.249 47.2482 130.939 47.1705 130.663 47.0153C130.387 46.862 130.168 46.6475 130.013 46.3819C129.858 46.1142 129.778 45.8118 129.778 45.4787C129.778 45.1457 129.858 44.8413 130.013 44.5756C130.172 44.3059 130.391 44.0934 130.665 43.9402Z" fill="white"/>
<path d="M135.851 43.2515H135.307V47.7037H138.298V47.2215H135.851V43.2515Z" fill="white"/>
<path d="M140.716 43.2515H140.172V47.7037H140.716V43.2515Z" fill="white"/>
<path d="M146.441 46.7209L143.697 43.2658L143.684 43.2515H143.243V47.7037H143.787V44.2322L146.524 47.6873L146.537 47.7037H146.978V43.2515H146.441V46.7209Z" fill="white"/>
<path d="M150.049 43.2515H149.506V47.7037H150.049V43.2515Z" fill="white"/>
<path d="M153.615 43.9402C153.89 43.7869 154.201 43.7073 154.538 43.7073C155.045 43.7073 155.47 43.8768 155.801 44.214L155.829 44.2426L156.179 43.8932L156.152 43.8646C155.956 43.6521 155.717 43.4907 155.437 43.3803C155.159 43.27 154.851 43.2148 154.524 43.2148C154.087 43.2148 153.684 43.3129 153.331 43.507C152.975 43.7011 152.695 43.9749 152.493 44.3182C152.293 44.6614 152.19 45.0517 152.19 45.4787C152.19 45.9058 152.293 46.294 152.493 46.6393C152.693 46.9846 152.973 47.2564 153.326 47.4505C153.678 47.6446 154.078 47.7426 154.518 47.7426C154.847 47.7426 155.155 47.6854 155.435 47.5731C155.717 47.4607 155.958 47.2972 156.152 47.0847L156.179 47.0561L155.827 46.7067L155.799 46.7374C155.472 47.0766 155.047 47.2482 154.536 47.2482C154.199 47.2482 153.888 47.1705 153.612 47.0153C153.337 46.862 153.118 46.6475 152.963 46.3819C152.807 46.1142 152.728 45.8118 152.728 45.4787C152.728 45.1457 152.807 44.8413 152.963 44.5756C153.12 44.3059 153.339 44.0934 153.615 43.9402Z" fill="white"/>
<path d="M159.975 43.2739L159.965 43.2515H159.456L157.448 47.6465L157.421 47.7037H157.991L158.516 46.5349L158.721 46.0793L159.707 43.8726L160.692 46.0793L160.899 46.5349L161.424 47.7037H162L159.975 43.2739Z" fill="white"/>
</svg>
