<svg width="53" height="49" viewBox="0 0 53 49" fill="none" xmlns="http://www.w3.org/2000/svg">
<path d="M19.7156 0.660178L11.3343 35.8999L9.81043 27.709C12.8582 27.709 15.3345 28.6615 17.2393 30.5663C19.1442 32.3442 20.0966 34.757 20.0966 37.8047C20.0966 40.8525 19.1442 43.3288 17.2393 45.2337C15.3345 47.1385 12.9852 48.0909 10.1914 48.0909C7.14364 48.0909 4.66734 47.1385 2.76249 45.2337C0.984631 43.2018 0.0957016 40.7255 0.0957016 37.8047C0.0957016 36.6618 0.159196 35.6459 0.286186 34.757C0.413176 33.868 0.667156 32.7886 1.04813 31.5187C1.4291 30.2488 1.93706 28.725 2.572 26.9471L10.5724 0.660178H19.7156ZM52.0981 0.660178L43.7167 35.8999L42.1929 27.709C45.2406 27.709 47.7169 28.6615 49.6218 30.5663C51.5266 32.3442 52.4791 34.757 52.4791 37.8047C52.4791 40.8525 51.5266 43.3288 49.6218 45.2337C47.7169 47.1385 45.3676 48.0909 42.5738 48.0909C39.5261 48.0909 37.0498 47.1385 35.1449 45.2337C33.3671 43.2018 32.4781 40.7255 32.4781 37.8047C32.4781 36.6618 32.5416 35.6459 32.6686 34.757C32.7956 33.868 33.0496 32.7886 33.4306 31.5187C33.8115 30.2488 34.3195 28.725 34.9544 26.9471L42.9548 0.660178H52.0981Z" fill="#D19451"/>
</svg>
